PathFileType	4	(X/Y/Z)	C:/Users/beibeiliu/ov580/test_trc/User1\sequence.2_training_dense_right.trc
DataRate	CameraRate	NumFrames	NumMarkers	Units	OrigDataRate	OrigDataStartFrame	OrigNumFrames
120	120	19	19	mm	120	59	145
Frame#	Time	ThumbCMC			ThumbMCP			ThumbIP			ThumbTip			IndexMCP			IndexPIP			IndexTip			MiddleMCP			MiddlePIP			MiddleTip			RingMCP			RingPIP			RingTip			PinkyMCP			PinkyPIP			PinkyTip			BackHand1			BackHand2			BackHand3	
		X0	Y0	Z0	X1	Y1	Z1	X2	Y2	Z2	X3	Y3	Z3	X4	Y4	Z4	X5	Y5	Z5	X6	Y6	Z6	X7	Y7	Z7	X8	Y8	Z8	X9	Y9	Z9	X10	Y10	Z10	X11	Y11	Z11	X12	Y12	Z12	X13	Y13	Z13	X14	Y14	Z14	X15	Y15	Z15	X16	Y16	Z16	X17	Y17	Z17	X18	Y18	Z18	
58	0.483333	142.065	77.8762	89.0558	112.162	70.8719	66.3388	101.219	58.9215	42.0439	98.0082	37.2372	24.9757	153.752	56.6666	10.1357	129.74	41.536	-9.2652	102.281	30.8097	4.63505	164.867	35.2558	7.16417	133.657	17.1566	-7.73158	102.652	14.9601	15.1915	170.367	18.4604	14.844	142.989	-0.130559	1.45815	116.759	-2.43767	16.0959	176.552	-2.04674	34.7379	153.852	-9.45579	18.4111	122.171	-7.18364	23.3736	192.851	33.4933	73.0813	198.164	40.0492	106.854	182.157	69.0329	82.6367	
59	0.491667	160.893	84.4098	85.3737	131.513	95.5021	60.8184	117.097	80.7782	38.3683	100.012	69.1337	25.2713	156.589	54.7911	6.70135	128.881	46.2337	-7.97509	97.6167	51.2785	6.62682	153.495	26.5244	5.06601	120.809	26.0034	-7.81309	92.6961	37.1291	11.5345	152.127	6.89668	17.6272	120.409	5.53468	3.49284	95.2824	16.0921	19.1317	150.139	-8.03751	42.3554	127.257	-8.59085	23.5413	103.418	10.6433	24.1828	180.722	20.1342	69.169	191.145	26.335	105.908	190.982	55.3761	79.6603	
60	0.5	184.306	87.4296	81.962	161.756	97.8848	54.8205	145.26	97.2202	30.3855	123.641	89.8881	13.1062	171.709	47.1651	2.57285	143.527	55.0196	-14.2676	117.896	73.5061	-3.33845	165.623	25.6457	5.79218	137.678	35.0035	-14.9808	105.424	56.7801	2.54068	150.821	6.7432	15.3301	125.454	15.3615	-0.592012	101.935	36.3497	8.88331	141.019	-3.97528	44.1192	124.371	4.91966	20.1133	104.337	22.365	13.5966	179.52	13.1429	72.8263	187.988	19.5345	106.47	200.819	44.4558	76.2509	
61	0.508333	197.966	86.0551	80.31	179.669	104.194	53.24	167.373	101.42	24.757	151.466	91.819	8.102	199.867	50.4261	7.19163	171.589	54.6178	-15.7085	150.044	75.5534	-12.0277	187.603	24.0479	7.91203	166.416	37.0678	-21.0443	138.271	60.396	-14.5338	175.335	11.8514	14.5367	155.337	17.7917	-8.87715	129.389	38.5716	-7.25463	158.763	0.990623	35.5292	144.897	2.92591	15.4101	129.007	28.8236	-2.36037	189.287	15.1397	73.3001	192.959	20.7912	107.908	213.962	47.6728	82.1291	
62	0.516667	197.528	92.8107	86.9968	179.516	102.404	55.4881	174.289	99.4486	23.6079	163.488	91.5488	3.36956	218.625	61.0855	13.8684	198.548	60.992	-11.4063	168.195	77.8096	-14.6235	217.247	34.6466	5.61146	198.991	43.0693	-20.5644	161.489	57.235	-20.6986	205.415	17.2009	16.9638	188.813	25.9073	-14.5042	157.396	38.9007	-16.1577	187.47	1.79814	34.6063	178.965	7.12069	7.37046	163.302	26.3888	-10.3786	209.064	23.3954	78.2706	204.579	24.1663	112.728	220.933	56.4458	88.0641	
63	0.525	177.555	95.0126	90.3331	161.696	97.917	57.2364	160.03	97.5105	27.8577	157.898	85.6831	1.43712	218.776	86.5583	20.1858	202.147	86.5151	-10.3347	168.723	76.8089	-11.5144	230.888	63.4683	14.482	217.298	63.8353	-15.1403	176.085	57.8201	-24.6698	229.52	41.1204	20.9227	216.62	40.7554	-11.0047	186.699	39.9396	-19.0998	218.871	18.0421	33.7527	214.059	22.1139	9.50304	195.39	29.0534	-14.2454	225.825	41.3619	79.0778	213.807	37.2722	114.962	214.95	76.7146	94.8082	
64	0.533333	151.807	79.5628	97.58	138.277	82.5462	57.3715	137.799	81.8195	31.4358	147.672	74.5981	4.32245	192.226	111.803	29.0007	181.494	101.255	-5.3006	161.279	75.4539	-9.7428	216.297	98.8266	22.137	209.222	89.6418	-10.0913	180.868	69.5841	-23.5958	230.287	75.8006	26.8244	222.151	69.0529	-9.45022	199.734	56.5607	-18.6096	233.524	49.393	37.0499	230.881	48.3934	9.91806	215.296	45.4965	-13.4419	223.306	64.9315	83.4735	214.441	53.0186	117.62	194.235	85.3184	102.205	
65	0.541667	136.529	60.4744	94.4968	128.856	55.5261	58.5656	127.896	58.4933	30.6146	138.546	55.0074	5.94683	162.404	108.81	30.8554	163.357	95.6037	-2.93909	155.488	66.6116	-9.21582	194.556	109.264	22.9256	189.403	99.6645	-7.03734	174.754	68.8193	-19.8614	211.762	96.6013	28.8544	209.44	89.4776	-3.18635	195.22	63.0906	-16.1783	229.595	72.4627	40.1108	231.025	67.8223	12.3421	216.556	60.8677	-8.18468	207.449	78.5538	89.3646	201.595	62.9253	120.391	174.486	86.5892	102.418	
66	0.55	129.108	48.552	93.6043	123.01	38.0213	59.5934	122.754	40.638	27.7976	135.332	37.2542	6.1164	149.994	95.4604	23.7136	148.836	84.7336	-5.17512	146.499	47.0982	-8.8804	177.746	100.884	23.0666	176.465	87.8282	-10.4256	169.147	48.3453	-14.3823	201.655	93.724	24.8434	200.201	79.8419	-6.67833	190.235	52.7886	-12.5209	221.24	74.098	41.4133	223.255	70.5614	16.3746	210.638	50.7139	-7.11601	198.569	81.2179	85.2029	195.046	65.7706	117.265	161.083	78.5366	101.58	
67	0.558333	124.111	52.1034	97.3209	115.6	38.0508	63.5608	119.057	35.6815	33.6069	123.075	26.0421	11.0997	150.17	83.0728	19.8675	144.811	66.039	-7.50907	137.351	32.1238	-4.83345	173.367	82.624	12.1412	170.329	62.8613	-13.137	156.073	28.022	-6.12846	197.764	71.7451	23.1695	190.635	56.2869	-7.52451	176.018	26.7626	-4.99844	214.905	52.9659	37.7487	206.185	45.2129	8.34661	189.586	25.2614	-2.06786	195.191	68.9292	83.0703	196.147	60.8197	117.466	159.63	79.3498	96.2382	
68	0.566667	130.287	72.7922	97.6755	111.078	61.2304	70.0251	102.703	52.9825	39.3034	103	37.4804	18.569	156.361	69.1084	16.4676	143.389	50.3495	-7.61145	114.13	33.6628	-1.03799	174.803	52.0518	4.83056	153.864	34.6416	-12.3151	124.374	17.491	7.00187	187.994	35.4046	15.5065	166.216	22.9198	-7.01514	137.479	6.97186	7.43923	193.402	18.9211	34.1347	180.572	13.9898	12.2769	147.19	3.97194	10.4528	194.002	47.6857	76.732	196.797	46.4712	108.036	176.314	73.0472	87.9528	
69	0.575	154.482	85.3242	87.2265	127.575	88.6348	65.3761	113.094	80.2698	36.5356	99.6032	66.6693	23.4045	157.985	60.8475	5.6944	133.547	51.0372	-10.5689	102.434	52.0659	0.693488	163.803	34.9992	3.89275	133.118	30.9777	-11.5183	103.223	32.9601	15.2308	166.301	13.7037	17.4086	138.885	11.9966	-2.36152	109.116	13.6795	17.156	163.49	0.572967	35.6812	146.148	-6.62259	17.1923	116.547	5.34791	17.8576	186.901	25.049	70.5418	192.385	35.0845	106.232	186.462	64.8805	82.7709	
70	0.583333	177.173	85.5094	82.6449	153.303	96.6206	55.3448	136.878	97.0062	29.27	118.032	85.8419	14.0311	167.343	49.1786	1.91944	141.96	53.6192	-14.3432	113.711	72.7628	-1.99596	162.516	23.3187	4.7033	135.94	34.4672	-14.0591	108.664	51.497	9.03073	156.487	9.47301	17.7814	130.224	14.7661	-2.89804	106.958	35.7005	11.9764	147.553	-3.77048	38.4368	126.218	-1.92072	18.9656	109.968	19.4937	13.5836	178.336	14.9177	70.2741	187.277	22.5871	102.032	198.579	48.4144	76.8237	
71	0.591667	195.951	81.8922	79.9405	178.25	99.4468	51.8878	162.876	93.3246	24.6221	144.114	89.2579	4.2222	190.792	45.1094	3.44641	163.224	51.5226	-15.382	143.419	73.8879	-10.8314	179.659	23.5431	0.834588	156.348	35.3947	-17.8248	132.778	64.6242	1.78426	167.014	7.29435	15.5599	143	15.1167	-4.31277	123.897	44.5947	5.86133	152.045	-2.04412	40.9339	139.733	0.937942	16.2325	124.712	23.8067	6.67362	186.177	11.1818	75.4585	191.034	21.0595	109.601	207.853	43.763	83.3726	
72	0.6	205.986	82.6193	87.2901	192.427	95.5386	50.6348	183.62	91.8049	23.1196	169.19	86.3057	1.76187	215.641	44.3899	11.3545	191.895	52.2752	-15.9249	167.301	73.2104	-12.9723	205.882	23.6825	5.21149	182.646	35.378	-18.0145	159.93	61.7308	-6.13769	193.653	8.04462	17.8446	174.646	19.8425	-10.4469	149.581	40.5862	-2.41113	175.548	-0.227453	38.1859	164.381	5.02326	9.45396	148.03	27.5555	-2.78526	200.467	12.1518	77.897	198.641	17.6293	107.968	222.067	44.5576	85.1104	
73	0.608333	202.115	88.5442	88.9266	187.783	102.408	55.3611	185.666	94.914	26.8713	179.692	86.8962	3.02323	233.651	64.5406	16.1145	216.443	68.4569	-11.8528	186.064	76.2008	-16.314	233.291	43.1569	10.1859	213.424	48.0567	-15.1772	178.044	62.8535	-8.02111	224.933	23.7848	19.7472	206.16	26.7559	-12.2712	176.271	40.4932	-8.74423	207.138	6.38549	34.7455	199.345	9.42555	5.69363	178.42	31.1697	-8.12861	220.436	24.6295	77.282	211.319	26.4321	112.173	226.901	58.9921	94.9736	
74	0.616667	174.056	84.7295	92.1295	162.213	87.9469	55.0947	164.439	86.1356	28.4582	169.85	75.9128	3.68022	220.437	98.5239	23.8291	207.866	91.3314	-7.57553	181.177	74.7647	-13.0133	235.401	82.0443	16.8194	218.391	73.0686	-11.9491	185.268	58.9039	-9.27739	242.328	59.5197	24.7562	225.356	53.0847	-9.89054	199.01	44.3066	-11.748	238.77	34.8345	35.8329	229.829	36.1887	5.4877	202.01	40.2853	-6.12027	235.315	49.8912	80.685	221.543	43.0667	115.309	215.806	80.79	97.7055	
75	0.625	149.065	63.4339	89.796	136.572	56.1802	55.1642	140.744	55.9185	26.7376	153.154	51.8746	-1.99038	180.897	104.753	22.8874	177.691	91.8191	-6.05296	163.951	62.9566	-12.6944	203.941	101.133	22.5998	196.997	84.3871	-11.0988	179.284	48.5099	-6.48846	225.277	85.9551	22.897	218.269	75.5834	-4.70038	201.646	46.3806	-9.00536	237.244	63.5456	40.1548	234.814	58.9633	11.8709	209.775	42.8894	-4.89761	220.951	74.191	84.5495	212.22	59.1697	116.609	183.533	86.6894	99.6339	
76	0.633333	135.539	50.0798	92.2449	124.722	39.4345	53.7875	128.739	35.7489	27.895	137.282	28.7235	1.08166	159.298	92.5961	23.4248	154.569	78.0258	-7.84123	151.531	39.8393	-8.24258	180.905	93.4887	16.7744	179.228	71.6426	-12.5014	168.066	37.2231	-4.75218	202.72	83.8227	23.5549	200.312	64.5696	-7.91615	189.952	35.8634	-5.27117	220.278	66.6511	37.7944	218.446	57.862	10.8634	194.813	35.3599	-0.0301598	200.268	74.5626	86.2153	201.527	66.1905	114.773	166	77.9556	101.482	
